<?xml version="1.0" encoding="utf-8"?>
<!-- Generator: Adobe Illustrator 16.0.4, SVG Export Plug-In . SVG Version: 6.00 Build 0)  -->
<!DOCTYPE svg PUBLIC "-//W3C//DTD SVG 1.0//EN" "http://www.w3.org/TR/2001/REC-SVG-20010904/DTD/svg10.dtd">
<svg version="1.0" id="ROOT" xmlns="http://www.w3.org/2000/svg" xmlns:xlink="http://www.w3.org/1999/xlink" x="0px" y="0px"
	 width="1280px" height="720px" viewBox="0 0 1280 720" enable-background="new 0 0 1280 720" xml:space="preserve">
<path fill="#FF92F7" stroke="#DF13EA" stroke-width="2" stroke-linecap="round" stroke-linejoin="round" stroke-opacity="0.6078" d="
	M1092.944,654.198c-18.991,14.584-48.229,20.13-83.486,31.639c28.538-14.279,62.649-20.743,76.649-34.105
	c14.001-13.364,14.833-31.166,8.49-46.271c-6.344-15.104-25.414-35.285-70.938-43.33c-43.226-7.644-116.528-6.536-183.143-4.225
	c-0.985-2.745-1.687-5.717-2.09-8.836c4.925,0.047,9.926,0.094,14.957,0.154c31.012,0.389,63.809,0.835,94.566,2.581
	c36.255,1.984,69.69,5.717,93.706,12.075c17.359,4.282,29.658,10.061,38.375,16.357c12.061,8.722,20.777,18.366,23.508,27.465
	C1108.02,622.677,1108.004,642.631,1092.944,654.198z"/>
<path fill="#93E27D" stroke="#DF13EA" stroke-width="2" stroke-linecap="round" stroke-linejoin="round" d="M1099.765,656.677
	c-19.03,14.08-56.325,19.269-90.303,29.165c35.255-11.509,64.495-17.06,83.487-31.639c15.06-11.567,15.074-31.524,10.596-46.494
	c-2.73-9.105-11.447-18.747-23.508-27.464c-8.717-6.3-21.016-12.075-38.375-16.36c-24.016-6.358-57.451-10.089-93.706-12.075
	c-30.758-1.746-63.555-2.192-94.565-2.579c-5.031-0.061-10.037-0.105-14.958-0.154c-0.508-3.672-0.642-7.552-0.413-11.509
	c12.607,0.94,25.593,1.767,38.896,2.574c30.345,1.954,62.241,3.845,92.2,7.297c34.974,3.896,67.268,9.852,90.572,18.192
	c16.075,5.283,27.673,11.866,35.764,18.821c10.642,9.167,15.06,19.136,16.626,28.464
	C1114.9,627.705,1114.453,645.079,1099.765,656.677z"/>
<path fill="#5FA365" stroke="#DF13EA" stroke-width="2" stroke-linecap="round" stroke-linejoin="round" d="M1106.601,659.139
	c-21.55,14.434-60.45,19.002-97.139,26.703c33.978-9.896,71.272-15.085,90.303-29.165c14.692-11.598,15.141-28.967,12.3-43.759
	c-1.567-9.328-5.986-19.304-16.628-28.463c-8.09-6.958-19.688-13.538-35.763-18.82c-23.299-8.347-55.6-14.298-90.576-18.192
	c-29.952-3.451-61.85-5.345-92.197-7.299c-13.3-0.808-26.285-1.633-38.9-2.574c0.252-4.83,1.018-9.774,2.207-14.581
	c19.076,3.203,39.315,5.672,60.212,8.055c29.69,3.513,60.689,6.856,89.826,12c33.677,5.822,64.852,14.022,87.42,24.336
	c14.823,6.283,25.718,13.652,33.151,21.3c9.269,9.522,12.958,19.657,13.447,29.195
	C1125.349,632.496,1121.617,648.437,1106.601,659.139z"/>
<path fill="#1451B2" stroke="#DF13EA" stroke-width="2" stroke-linecap="round" stroke-linejoin="round" d="M1136.469,622.81
	c-0.672,14.479-7.688,28.972-23.036,38.807c-24.061,14.771-64.584,18.72-103.975,24.224c36.688-7.697,75.591-12.27,97.139-26.701
	c15.02-10.702,18.751-26.643,17.677-41.271c-0.492-9.538-4.184-19.674-13.453-29.195c-7.431-7.644-18.323-15.015-33.15-21.303
	c-22.568-10.309-53.748-18.504-87.416-24.331c-29.139-5.147-60.138-8.487-89.831-12c-20.896-2.387-41.135-4.851-60.211-8.055
	c1.567-6.305,3.88-12.372,6.806-17.671c3.498,1.025,7.051,2.024,10.647,2.984c20.697,5.504,43.132,9.669,66.302,13.652
	c29.001,5.075,59.116,9.856,87.438,16.704c32.384,7.741,62.415,18.164,84.286,30.464c13.537,7.282,23.789,15.387,30.523,23.762
	C1134.154,602.748,1137.08,613.077,1136.469,622.81z"/>
<path fill="#FFB533" stroke="#DF13EA" stroke-width="2" stroke-linecap="round" stroke-linejoin="round" stroke-opacity="0.6078" d="
	M1120.273,664.078c-26.583,15.15-68.704,18.45-110.812,21.764c39.396-5.504,79.915-9.449,103.976-24.223
	c15.344-9.836,22.359-24.331,23.036-38.81c0.606-9.732-2.319-20.06-10.255-29.926c-6.736-8.373-16.985-16.477-30.523-23.762
	c-21.868-12.3-51.9-22.723-84.288-30.464c-28.319-6.85-58.436-11.629-87.437-16.702c-23.167-3.985-45.604-8.15-66.301-13.652
	c-3.599-0.962-7.149-1.959-10.648-2.986c4.738-8.614,11.046-15.164,18.271-17.329c5.882,2.523,11.926,4.896,18.149,7.105
	c45.257,16.062,99.945,23.911,149.097,39.179c49.156,15.286,92.78,37.987,109.065,62.845
	C1157.887,621.944,1146.842,648.931,1120.273,664.078z"/>
<path fill="#9577B5" stroke="#D34F9D" stroke-width="2" stroke-linecap="round" stroke-linejoin="round" d="M826.437,535.309
	c0.213,2.348,0.699,4.599,1.451,6.703c-0.019,0-0.033-0.003-0.033-0.003c-0.011,0.003-0.011,0.003-0.022,0
	c-8.652-2.537-16.697-5.347-24.101-8.42c-10.665-4.393-20.063-9.3-28.219-14.666c-0.019,0.005-0.019,0.005-0.019,0.005
	c-13.086-8.574-22.99-18.265-29.85-28.765c-8.522-13.047-15.049-25.737-14.378-40.628c1.845,10.087,8.493,18.189,16.608,25.648
	c25.914,23.79,64.55,28.145,88.384,28.037c-2.88,3.777-5.246,8.162-6.955,12.768c-1.298,3.513-2.222,7.143-2.685,10.73
	C826.228,529.646,826.158,532.545,826.437,535.309z"/>
<path fill="#71B262" stroke="#D34F9D" stroke-width="2" stroke-linecap="round" stroke-linejoin="round" d="M807.11,547.253
	c-10.6-0.183-20.894-0.396-30.909-0.746c-6.875-0.228-14.837-0.831-23.486-1.706c-29.994-3.026-68.075-9.27-96.224-14.354
	c7.326-10.748,18.439-18.724,31.417-21.983c7.003,2.766,14.229,5.27,21.683,7.557c10.1,3.325,20.639,6.185,31.623,8.648
	c11.274,2.521,23.021,4.634,35.296,6.38c0,0,0,0,0.017,0C785.443,537.153,795.628,542.575,807.11,547.253z"/>
<path fill="#92D4CD" stroke="#D34F9D" stroke-width="2" stroke-linecap="round" stroke-linejoin="round" stroke-opacity="0.6078" d="
	M865.292,480.079c-7.003,2.039-13.131,8.204-17.722,16.313c-25.662,2.082-67.59-0.253-97.169-28.082
	c-9.265-8.729-14.173-20.617-16.865-33.165v-0.012c-4.635-21.511-2.755-45.017-5.187-58.027
	c-3.864-20.61-23.163-28.971-43.432-28.971c-4.518,0-8.44,1.053-12.146,2.881c12.1-17.885,30.345-41.659,40.797-50.469
	c8.542,44.076,32.299,84.597,61.282,116.194C794.466,438.137,835.256,467.571,865.292,480.079z"/>
<path fill="#FBDCEB" stroke="#D34F9D" stroke-width="2" stroke-linecap="round" stroke-linejoin="round" d="M829.417,561.168
	c-3.336,0.126-6.635,0.238-9.933,0.365c-23.605,0.858-46.021,1.853-67.312,2.578c-37.271,1.275-71.093,1.734-101.848-0.585
	c-1.735-0.126-3.453-0.271-5.159-0.419c0.541-10.051,3.856-19.374,9.195-27.197h0.016c27.924,5.046,65.697,11.233,95.454,14.24
	c8.579,0.863,16.477,1.463,23.292,1.691c12.919,0.454,23.139,0.613,30.662,0.74C811.697,555.83,820.248,558.694,829.417,561.168z"/>
<path fill="#EE75B1" stroke="#D34F9D" stroke-width="2" stroke-linecap="round" stroke-linejoin="round" d="M750.541,572.089
	c0,29.131-23.604,52.735-52.734,52.735c-29.124,0-52.734-23.604-52.734-52.735c0-0.971,0.033-1.938,0.087-2.896
	c1.679,0.149,3.371,0.283,5.073,0.407c30.28,2.283,63.574,1.834,100.266,0.582C750.527,570.812,750.541,571.443,750.541,572.089z"/>
<path fill="#AED24D" stroke="#EA1313" stroke-width="2" stroke-linecap="round" stroke-linejoin="round" stroke-opacity="0.6078" d="
	M772.167,524.001c-11.987-1.706-23.467-3.771-34.479-6.236c-10.735-2.408-21.033-5.202-30.899-8.448
	c-7.28-2.229-14.34-4.68-21.183-7.378c-4.722-1.84-9.332-3.812-13.846-5.876c-17.618-7.404-33.665-16.327-47.719-26.426
	c4.184-18.293,9.304-36.419,15.292-53.431c7.817-22.233,17.136-42.557,27.844-58.839c3.52-1.79,7.25-2.826,11.544-2.826
	c19.27,0,37.616,8.19,41.292,28.384c2.314,12.745,0.526,35.771,4.932,56.843v0.016c0.3,18.417,5.145,35.728,14.739,51.13
	C747.407,503.314,758.199,514.477,772.167,524.001z"/>
<path fill="#F297C4" stroke="#D34F9D" stroke-width="2" stroke-linecap="round" stroke-linejoin="round" d="M678.333,503.886
	c-12.222,3.196-22.69,11.026-29.589,21.581h-0.013c-4.83-0.901-9.354-1.774-13.465-2.589c-6.594-1.299-14.899-4.247-24.164-8.363
	c-9.658-4.29-20.353-9.878-31.193-16.246c-3.141-7.329-5.878-14.874-8.198-22.935c-5.572-19.427-8.307-39.376-8.823-59.445
	c-0.031-0.816-0.041-1.618-0.054-2.435c4.272,0.761,8.466,0.87,12.447,0.262c15.815-2.421,29.388-9.213,42.418-18.749
	c6.155-4.483,12.951-10.202,20.539-17.183c8.734-8.037,15.06-15.369,22.33-19.216c-10.324,16.365-19.305,36.8-26.838,59.141
	c-5.772,17.1-10.707,35.32-14.741,53.704c13.547,10.155,29.014,19.122,46.003,26.563
	C669.338,500.052,673.781,502.029,678.333,503.886z"/>
<path fill="#EA529D" stroke="#D34F9D" stroke-width="2" stroke-linecap="round" stroke-linejoin="round" stroke-opacity="0.6078" d="
	M645.838,530.8c-5.439,7.973-8.81,17.462-9.366,27.698c-12.225-1.067-23.964-2.561-35.181-4.454
	c-0.223-0.03-0.455-0.072-0.684-0.114c-31.522-5.352-58.903-13.835-81.489-24.394c-23.183-10.854-41.33-23.909-64.556-35.039
	c-8.752-4.198-18.23-8.116-28.961-11.532c-9.801-3.116-16.979-5.134-28.377-7.3c2.79-23.416,5.579-47.021,10.561-70.122v0.043
	c0,27.272,22.942,49.383,51.249,49.383c11.908,0,22.87-3.927,31.581-10.502c0.27,0.218,0.537,0.411,0.797,0.611
	c6.188,4.84,12.221,9.776,18.003,14.789c16.951,14.698,40.09,30.296,62.605,42.949c11.627,6.547,23.098,12.29,33.458,16.703
	c9.929,4.241,18.845,7.271,25.912,8.614C635.805,528.977,640.657,529.873,645.838,530.8z"/>
<path fill="#F6895F" stroke="#A91D3B" stroke-miterlimit="10" d="M575.825,500.102c-23.156-13.012-46.953-29.053-64.384-44.171
	c-5.943-5.152-12.151-10.23-18.515-15.207c-0.264-0.205-0.542-0.406-0.819-0.629c12.31-9.294,20.212-23.755,20.212-39.986
	c0-28.042-23.597-50.786-52.689-50.786c-20.388,0-38.072,11.153-46.838,27.485c1.146-3.889,2.376-7.772,3.692-11.617
	c8.674-25.281,17.928-44.834,27.276-60.451c17.71,11.796,34.747,26.037,50.09,40.352c0.671,2.107,1.316,4.156,1.917,6.104
	c0.015,0.087,0.039,0.172,0.073,0.248c0.336,1.274,0.703,2.519,1.095,3.716c9.397,28.467,34.282,49.649,57.564,54.725
	c0.249,0.308,0.497,0.601,0.732,0.896c0.654,0.787,1.272,1.521,1.814,2.162c0.57,21.237,3.583,42.342,9.733,62.896
	C569.342,484.368,572.356,492.346,575.825,500.102z"/>
<path fill="#D4E057" stroke="#EA1313" stroke-width="2" stroke-linecap="round" stroke-linejoin="round" d="M505.61,400.242
	c0,14.571-7.094,27.556-18.146,35.9c-8.041,6.068-18.16,9.695-29.158,9.695c-26.135,0-47.319-20.418-47.319-45.596v-0.035
	c0.882-4.131,1.854-8.229,2.903-12.299c0.738-2.879,1.523-5.73,2.366-8.568c0-0.014,0-0.014,0-0.014
	c7.871-14.665,23.743-24.677,42.048-24.677C484.427,354.646,505.61,375.066,505.61,400.242z"/>
<path fill="#69F761" stroke="#E81C3D" stroke-width="2" stroke-linecap="round" stroke-linejoin="round" stroke-opacity="0.6078" d="
	M685.762,300.94c-7.86,8.104-21.571,29.972-30.672,46.425c-5.962,3.593-11.156,10.442-18.315,17.951
	c-5.638,5.907-11.177,11.347-16.847,16.052c-10.689,8.904-21.822,15.249-34.793,17.507c-3.267,0.568-6.705,0.466-10.212-0.246
	c-0.422-29.492,3.582-59.218,9.949-87.65c0.249-1.163,0.526-2.313,0.784-3.463c9.793-42.338,25.205-77.609,43.751-120.243
	c0.264-0.608,0.525-1.204,0.784-1.811h0.304c2.774,50.042,24.835,100.445,55.006,113.795
	C685.588,299.817,685.674,300.384,685.762,300.94z"/>
<path fill="#42BDED" stroke="#A91D3B" stroke-miterlimit="10" stroke-opacity="0.6078" d="M768.705,54.022
	c-2.027-0.194-4.075-0.284-6.138-0.284c-42.383,0-76.761,39.853-76.761,89.02c0,8.597,1.054,16.896,3.015,24.762
	c3.308,13.285,9.228,25.3,17.052,35.241c-5.342,29.777-6.437,61.958-1.725,92.556c-35.668-15.418-61.758-73.63-65.039-131.423
	c-0.013-0.239-0.026-0.478-0.035-0.702c-1.802-33.808,4.204-67.406,20.69-92.169c10.796-16.224,25.286-28.762,41.396-36.389
	C723.525,39.857,745.813,46.589,768.705,54.022z"/>
<path fill="#A5A2D0" stroke="#A91D3B" stroke-miterlimit="10" d="M439.899,301.559c-9.083,15.167-18.066,34.153-26.494,58.701
	c-1.274,3.737-2.472,7.505-3.578,11.287c0,0,0,0,0,0.015c-1.492,2.757-2.703,5.657-3.629,8.686
	c-1.346,4.401-2.075,9.063-2.075,13.886c-4.975,23.068-7.76,46.648-10.547,70.028c-21.917-39.143-30.189-63.121-36.642-106.542
	c0-0.032-0.015-0.058-0.015-0.09c-0.312-2.086-0.597-4.217-0.909-6.392v-0.019c-1.294-9.337-2.53-19.557-3.824-30.971
	c-2.302-20.395-2.075-41.432,0.342-62.354c12.451,8.613,26.352,15.734,41.403,20.581c0.072,0.028,0.141,0.042,0.217,0.07
	C409.424,283.337,424.905,291.553,439.899,301.559z"/>
<path fill="#8BD5EB" stroke="#F15F23" stroke-width="2" stroke-linecap="round" stroke-linejoin="round" stroke-opacity="0.6078" d="
	M388.568,470.131c-15.579-2.959-35.908-5.653-52.184-6.384c-20.329-0.89-40.249,0.189-57.286,3.824
	c-1.135-21.248-4.283-67.968,6.559-120.457c21.16,3.351,43.937,8.465,62.632,13.116c0.918,0.218,1.821,0.452,2.711,0.666
	C357.615,405.414,366.096,429.997,388.568,470.131z"/>
<path fill="#77C2EC" stroke="#A91D3B" stroke-miterlimit="10" d="M564.953,230.133c-0.493,24.065,2.658,47.093,7.645,70.491
	c-8.014,31.253-13.057,63.926-12.522,96.347c-0.018,0-0.032,0-0.041-0.021h-0.013c-0.755-0.127-1.525-0.28-2.274-0.454
	c-21.796-4.929-45.088-25.484-53.882-53.115c-0.33-1.166-0.672-2.372-1.028-3.609c-0.028-0.069-0.055-0.155-0.067-0.241
	c-0.438-1.72-0.823-3.496-1.165-5.314c-6.504-35.145,4.644-87.509,4.644-87.509c0.274-4.12,1.289-9.403,2.727-15.129l0.014-0.015
	c5.084-20.314,15.4-46.383,15.714-47.19c0.013-0.014,0.013-0.014,0.013-0.014c15.261-29.038,23.96-55.773,26.483-78.049
	c4.819-42.234-12.619-68.375-49.868-63.571c5.548-1.435,11.012-2.742,16.424-3.937c38.717-2.414,63.281,21.651,62.531,63.304v0.369
	c-0.493,22.532-4.411,44.793-8.168,66.968h-0.014C568.68,189.688,565.378,209.874,564.953,230.133z"/>
<path fill="#E2E554" stroke="#A91D3B" stroke-miterlimit="10" d="M486.5,333.064c-14.502-13.529-30.601-26.991-47.345-38.14
	c-14.591-9.739-29.661-17.735-44.532-22.495c-0.068-0.028-0.137-0.04-0.207-0.069c-14.651-4.718-28.18-11.648-40.299-20.032
	c1.771-15.412,4.758-30.754,8.854-45.708c7.305-26.81,18.095-52.391,31.557-74.844c16.583-27.668,34.002-54.948,67.247-74.939h0.015
	c0.143-0.055,0.29-0.111,0.442-0.139c-20.612,29.966-21.857,61.894-19.963,91.333c0.54,8.701,1.368,17.195,2.065,25.342
	c1.26,14.844,3.984,30.422,7.541,46.013c3.305,14.526,7.332,29.066,11.551,43.053C471.627,289.516,480.577,314.472,486.5,333.064z"
	/>
<path fill="#09CC73" stroke="#EA1313" stroke-width="2" stroke-linecap="round" stroke-linejoin="round" d="M494.538,42.111
	c-3.846,0.092-15.108-0.248-25.039,7.005c-18.191,13.285-22.224,62.932-20.297,92.865c0.549,8.849,1.392,17.484,2.096,25.769
	c1.276,15.093,4.052,30.932,7.667,46.784c3.361,14.77,7.456,29.554,11.746,43.775c8.342,27.527,17.441,52.903,23.461,71.808
	c0.225,0.198,0.436,0.394,0.648,0.605c-6.681-34.8,4.769-86.648,4.769-86.648c0.28-4.079,1.322-9.312,2.798-14.981l0.015-0.015
	c5.219-20.114,15.81-45.926,16.138-46.728c0.015-0.015,0.015-0.015,0.015-0.015c15.669-28.751,24.597-55.224,27.188-77.28
	C550.69,63.239,528.663,41.288,494.538,42.111z"/>
<path fill="#A4D071" stroke="#A91D3B" stroke-miterlimit="10" stroke-opacity="0.6078" d="M691.14,34.027
	c-15.572,7.202-29.578,19.038-40.014,34.358c-15.938,23.379-21.743,55.102-20.001,87.021c-0.112,0.225-0.212,0.437-0.311,0.662
	c-0.322,0.013-0.647,0.013-0.97,0.029l0.079,1.945c-21.195,46.49-38.808,84.948-50.002,131.114
	c-0.299,1.255-0.609,2.509-0.899,3.776c-4.527-23.209-7.389-46.053-6.935-69.925c0.385-20.097,3.381-40.122,6.492-60.203h0.012
	c3.408-21.998,6.966-44.081,7.414-66.432v-0.365c0.683-41.319-21.614-65.192-56.765-62.797
	c41.195-9.906,78.208-11.287,113.782-7.428C659.272,27.547,675.22,30.392,691.14,34.027z"/>
<path fill="#FCB873" stroke="#EA1313" stroke-width="2" stroke-linecap="round" stroke-linejoin="round" stroke-opacity="0.6078" d="
	M274.031,467.967c-40.472,8.633-64.585,31.779-88.698,54.946c-4.396-14.097-7.797-29.308-10.262-45.144
	c6.355,2.265,13.202,3.503,20.336,3.503c9.167,0,17.844-2.033,25.625-5.679c20.625-9.661,34.909-30.6,34.909-54.875
	c0-23.749-13.679-44.306-33.598-54.219c-8.114-4.037-17.251-6.313-26.937-6.313c-8.057,0-15.739,1.57-22.759,4.424
	c0.736-7.076,1.615-14.081,2.652-20.971c17.483-1.34,34.808-1.398,51.729-0.533c18.377,0.953,36.292,2.998,53.486,5.723
	C271.018,394.818,272.607,441.364,274.031,467.967z"/>
<path fill="#FBF179" stroke="#EA3213" stroke-width="2" stroke-linecap="round" stroke-linejoin="round" d="M351.284,353.768
	c-0.881-0.219-1.773-0.446-2.683-0.664c-18.499-4.6-41.037-9.661-61.974-12.976c-17.202-2.726-35.126-4.773-53.51-5.724
	c-16.928-0.866-34.26-0.808-51.752,0.532c1.328-8.826,2.914-17.461,4.744-25.84c10.988,6.921,24.008,10.931,37.953,10.931
	c4.57,0,9.054-0.433,13.379-1.255c32.963-6.259,57.894-35.228,57.894-70.021c0-11.606-2.768-22.552-7.686-32.227
	c-7.7-15.182-20.677-27.224-36.509-33.742c8.826-10.079,18.342-19.883,28.464-29.342c2.927,14.073,9.43,34.289,18.225,48.174
	c8.06,12.748,18.442,25.278,30.8,36.466c5.653,5.133,11.723,9.963,18.183,14.42c-2.453,21.225-2.682,42.565-0.346,63.257
	c1.312,11.579,2.567,21.947,3.879,31.42v0.015c-0.547,1.773,0.792,5.869,0.922,6.488
	C351.269,353.71,351.284,353.738,351.284,353.768z"/>
<path fill="#BEDA78" stroke="#D42027" stroke-width="2" stroke-linecap="round" stroke-linejoin="round" d="M454.959,52.63
	c-32.619,19.616-49.712,46.386-65.99,73.537c-13.209,22.032-23.797,47.135-30.965,73.443c-4.018,14.675-6.952,29.729-8.689,44.853
	c-6.082-4.196-11.797-8.742-17.118-13.576c-11.635-10.535-21.409-22.331-28.997-34.332c-8.281-13.072-14.404-32.105-17.159-45.355
	c46.428-43.388,106.291-78.941,168.443-98.422c0.014,0,0.014,0,0.014,0C454.647,52.711,454.798,52.671,454.959,52.63z"/>
<path fill="#FEEFA2" stroke="#EA1313" stroke-width="2" stroke-linecap="round" stroke-linejoin="round" d="M787.67,64.121
	c-23.058,25.379-46.131,50.754-61.038,85.72c-1.96,4.585-3.771,9.34-5.432,14.235c-2.863,8.382-5.255,17.178-7.121,26.22
	c-7.877-8.627-13.839-19.056-17.165-30.584c-1.969-6.827-3.032-14.029-3.032-21.491c0-42.671,34.601-77.258,77.274-77.258
	c2.07,0,4.13,0.076,6.178,0.245C780.766,62.166,784.213,63.138,787.67,64.121z"/>
<path fill="#94C93D" stroke="#EA1313" stroke-width="2" stroke-linecap="round" stroke-linejoin="round" d="M250.459,420.588
	c0,21.015-12.367,39.15-30.226,47.511c-3.731-31.674-3.655-64.358,1.136-94.459C238.618,382.225,250.459,400.022,250.459,420.588z"
	/>
<path fill="#6076B9" stroke="#A91E24" stroke-width="2" stroke-linecap="round" stroke-linejoin="round" d="M243.144,183.795
	c-16.062,18.363-29.648,37.683-40.078,57.462c-9.038,17.167-16.213,38.39-21.318,61.777c-18.909-11.897-31.473-32.959-31.473-56.958
	c0-37.178,30.139-67.304,67.304-67.304C226.631,178.771,235.263,180.556,243.144,183.795z"/>
<path fill="#FEE393" stroke="#E75625" stroke-width="2" stroke-linecap="round" stroke-linejoin="round" d="M491.107,117.503
	c-15.261-1.945-27.042-14.976-27.042-30.754c0-8.568,3.472-16.315,9.077-21.92C477.659,79.214,484.041,97.74,491.107,117.503z"/>
<path fill="#F9A974" stroke="#A91D3B" stroke-miterlimit="10" d="M856.252,142.773c0,43.425-35.21,78.624-78.621,78.624
	c-23.003,0-43.7-9.875-58.084-25.627c1.896-9.202,4.337-18.154,7.247-26.682c1.687-4.983,3.534-9.822,5.524-14.487
	c15.175-35.579,38.653-61.406,62.118-87.23c-3.52-1-7.026-1.99-10.521-2.966C824.389,67.606,856.252,101.472,856.252,142.773z"/>
<path fill="#C36CAB" stroke="#A91E24" stroke-width="2" stroke-linecap="round" stroke-linejoin="round" d="M531.651,84.392
	c0,17.628-14.289,31.917-31.921,31.917c-1.392,0-2.758-0.083-4.091-0.28c-7.269-20.33-13.838-39.393-18.485-54.192
	c5.779-5.792,13.769-9.364,22.577-9.364C517.362,52.477,531.651,66.765,531.651,84.392z"/>
<path fill="#91D6E4" stroke="#93251E" stroke-width="2" stroke-linecap="round" stroke-linejoin="round" d="M288.009,248.951
	c0,31.931-22.88,58.516-53.131,64.26c-3.97,0.753-8.085,1.149-12.281,1.149c-12.796,0-24.746-3.679-34.83-10.03v-0.013
	c4.963-22.734,11.936-43.365,20.724-60.052c10.138-19.226,23.344-38.006,38.959-55.856c14.529,5.98,26.438,17.031,33.505,30.965
	C285.469,228.254,288.009,238.299,288.009,248.951z"/>
<path fill="#C158A1" stroke="#EA1313" stroke-width="2" stroke-linecap="round" stroke-linejoin="round" d="M215.47,470.206
	c-6.998,3.277-14.798,5.104-23.04,5.104c-6.414,0-12.569-1.113-18.284-3.144c-21.071-7.516-36.142-27.646-36.142-51.291
	c0-22.82,14.047-42.36,33.964-50.447c6.311-2.569,13.218-3.978,20.46-3.978c8.709,0,16.925,2.048,24.221,5.675
	C211.674,403.378,211.597,437.315,215.47,470.206z"/>
</svg>
